<svg xmlns="http://www.w3.org/2000/svg" viewBox="0 0 1800 1180" width="1800" height="1180" font-family='system-ui, -apple-system, "Segoe UI", Roboto, Helvetica, Arial, sans-serif'>
<defs>
  <marker id="arrow" viewBox="0 0 10 10" refX="9" refY="5" markerWidth="6" markerHeight="6" orient="auto-start-reverse">
    <path d="M 0 0 L 10 5 L 0 10 z" fill="#475569"/>
  </marker>
  <marker id="arrow-dash" viewBox="0 0 10 10" refX="9" refY="5" markerWidth="5" markerHeight="5" orient="auto-start-reverse">
    <path d="M 0 0 L 10 5 L 0 10 z" fill="#94a3b8"/>
  </marker>
  <filter id="shadow" x="-20%" y="-20%" width="140%" height="140%">
    <feDropShadow dx="0" dy="2" stdDeviation="2" flood-opacity="0.08"/>
  </filter>
</defs>
<rect width="1800" height="1180" fill="#ffffff"/>
<text x="48" y="56" font-size="32" font-weight="700" fill="#0f172a">Technical Architecture — Layered modular monolith</text>
<text x="48" y="84" font-size="15" fill="#475569">Maverick’s Food Hub · Next.js 15 · Prisma · PostgreSQL · SSE · single VPS</text>
<rect x="48" y="110" width="1704" height="130" rx="14" ry="14" fill="none" stroke="#94a3b8" stroke-width="1" stroke-dasharray="6,4" opacity="0.45"/><text x="64" y="134" font-size="13" font-weight="700" fill="#94a3b8" letter-spacing="1.5">CLIENT TIER</text>
<rect x="80" y="150" width="280" height="78" rx="10" ry="10" fill="#fef3e7" stroke="#d97706" stroke-width="1.5" filter="url(#shadow)"/>
<text x="220.0" y="185.5" text-anchor="middle" font-size="14" font-weight="600" fill="#7c2d12">Customer PWA</text>
<text x="220.0" y="203.0" text-anchor="middle" font-size="11" fill="#64748b" font-style="italic">QR entry · menu · cart · OTP · tracker</text>
<rect x="420" y="150" width="280" height="78" rx="10" ry="10" fill="#fef3e7" stroke="#d97706" stroke-width="1.5" filter="url(#shadow)"/>
<text x="560.0" y="185.5" text-anchor="middle" font-size="14" font-weight="600" fill="#7c2d12">Rider Android</text>
<text x="560.0" y="203.0" text-anchor="middle" font-size="11" fill="#64748b" font-style="italic">Capacitor wrapper + GPS service</text>
<rect x="760" y="150" width="280" height="78" rx="10" ry="10" fill="#fef3e7" stroke="#d97706" stroke-width="1.5" filter="url(#shadow)"/>
<text x="900.0" y="185.5" text-anchor="middle" font-size="14" font-weight="600" fill="#7c2d12">Restaurant Admin</text>
<text x="900.0" y="203.0" text-anchor="middle" font-size="11" fill="#64748b" font-style="italic">Orders · menu · offers · happy hours</text>
<rect x="1100" y="150" width="280" height="78" rx="10" ry="10" fill="#fef3e7" stroke="#d97706" stroke-width="1.5" filter="url(#shadow)"/>
<text x="1240.0" y="185.5" text-anchor="middle" font-size="14" font-weight="600" fill="#7c2d12">Kitchen Panel</text>
<text x="1240.0" y="203.0" text-anchor="middle" font-size="11" fill="#64748b" font-style="italic">KOT · prep · ready · delay alerts</text>
<rect x="1440" y="150" width="280" height="78" rx="10" ry="10" fill="#fef3e7" stroke="#d97706" stroke-width="1.5" filter="url(#shadow)"/>
<text x="1580.0" y="185.5" text-anchor="middle" font-size="14" font-weight="600" fill="#7c2d12">Super Admin Portal</text>
<text x="1580.0" y="203.0" text-anchor="middle" font-size="11" fill="#64748b" font-style="italic">KYC · reconcile · analytics · live ops</text>
<rect x="48" y="260" width="1704" height="90" rx="14" ry="14" fill="none" stroke="#94a3b8" stroke-width="1" stroke-dasharray="6,4" opacity="0.45"/><text x="64" y="284" font-size="13" font-weight="700" fill="#94a3b8" letter-spacing="1.5">EDGE TIER</text>
<rect x="420" y="280" width="360" height="60" rx="10" ry="10" fill="#eef2ff" stroke="#4338ca" stroke-width="1.5" filter="url(#shadow)"/>
<text x="600.0" y="306.5" text-anchor="middle" font-size="14" font-weight="600" fill="#1e1b4b">Cloudflare</text>
<text x="600.0" y="324.0" text-anchor="middle" font-size="11" fill="#64748b" font-style="italic">DNS · WAF · CDN · SSL</text>
<rect x="1020" y="280" width="360" height="60" rx="10" ry="10" fill="#eef2ff" stroke="#4338ca" stroke-width="1.5" filter="url(#shadow)"/>
<text x="1200.0" y="306.5" text-anchor="middle" font-size="14" font-weight="600" fill="#1e1b4b">nginx reverse proxy</text>
<text x="1200.0" y="324.0" text-anchor="middle" font-size="11" fill="#64748b" font-style="italic">TLS termination · static cache · gzip</text>
<path d="M 600 340 L 1020 340" stroke="#64748b" stroke-width="1.6" fill="none" marker-end="url(#arrow)"/>
<rect x="48" y="370" width="1704" height="360" rx="14" ry="14" fill="none" stroke="#94a3b8" stroke-width="1" stroke-dasharray="6,4" opacity="0.45"/><text x="64" y="394" font-size="13" font-weight="700" fill="#94a3b8" letter-spacing="1.5">APPLICATION TIER · NEXT.JS 15 MODULAR MONOLITH</text>
<rect x="80" y="420" width="240" height="100" rx="10" ry="10" fill="#ecfdf5" stroke="#059669" stroke-width="1.5" filter="url(#shadow)"/>
<text x="200.0" y="466.5" text-anchor="middle" font-size="14" font-weight="600" fill="#064e3b">Next.js server</text>
<text x="200.0" y="484.0" text-anchor="middle" font-size="11" fill="#64748b" font-style="italic">App Router · React Server Components · React 19</text>
<rect x="440" y="420" width="240" height="100" rx="10" ry="10" fill="#ecfdf5" stroke="#059669" stroke-width="1.5" filter="url(#shadow)"/>
<text x="560.0" y="466.5" text-anchor="middle" font-size="14" font-weight="600" fill="#064e3b">API routes</text>
<text x="560.0" y="484.0" text-anchor="middle" font-size="11" fill="#64748b" font-style="italic">REST · /api/*</text>
<rect x="800" y="420" width="240" height="100" rx="10" ry="10" fill="#ecfdf5" stroke="#059669" stroke-width="1.5" filter="url(#shadow)"/>
<text x="920.0" y="466.5" text-anchor="middle" font-size="14" font-weight="600" fill="#064e3b">NextAuth v5</text>
<text x="920.0" y="484.0" text-anchor="middle" font-size="11" fill="#64748b" font-style="italic">OTP · email · Google OAuth</text>
<rect x="1160" y="420" width="240" height="100" rx="10" ry="10" fill="#ecfdf5" stroke="#059669" stroke-width="1.5" filter="url(#shadow)"/>
<text x="1280.0" y="466.5" text-anchor="middle" font-size="14" font-weight="600" fill="#064e3b">Order machine</text>
<text x="1280.0" y="484.0" text-anchor="middle" font-size="11" fill="#64748b" font-style="italic">State transitions · side effects</text>
<rect x="1520" y="420" width="240" height="100" rx="10" ry="10" fill="#ecfdf5" stroke="#059669" stroke-width="1.5" filter="url(#shadow)"/>
<text x="1640.0" y="466.5" text-anchor="middle" font-size="14" font-weight="600" fill="#064e3b">SSE fan-out</text>
<text x="1640.0" y="484.0" text-anchor="middle" font-size="11" fill="#64748b" font-style="italic">EventEmitter · channel:* subscribers</text>
<rect x="80" y="550" width="240" height="100" rx="10" ry="10" fill="#ecfdf5" stroke="#059669" stroke-width="1.5" filter="url(#shadow)"/>
<text x="200.0" y="596.5" text-anchor="middle" font-size="14" font-weight="600" fill="#064e3b">Offer + Happy Hour</text>
<text x="200.0" y="614.0" text-anchor="middle" font-size="11" fill="#64748b" font-style="italic">Resolvers · redemption math</text>
<rect x="440" y="550" width="240" height="100" rx="10" ry="10" fill="#ecfdf5" stroke="#059669" stroke-width="1.5" filter="url(#shadow)"/>
<text x="560.0" y="596.5" text-anchor="middle" font-size="14" font-weight="600" fill="#064e3b">Challenges + Signup bonus</text>
<text x="560.0" y="614.0" text-anchor="middle" font-size="11" fill="#64748b" font-style="italic">Lifecycle · reward emission</text>
<rect x="800" y="550" width="240" height="100" rx="10" ry="10" fill="#ecfdf5" stroke="#059669" stroke-width="1.5" filter="url(#shadow)"/>
<text x="920.0" y="596.5" text-anchor="middle" font-size="14" font-weight="600" fill="#064e3b">Alerts + Audit</text>
<text x="920.0" y="614.0" text-anchor="middle" font-size="11" fill="#64748b" font-style="italic">Debounce · NotificationLog</text>
<rect x="1160" y="550" width="240" height="100" rx="10" ry="10" fill="#ecfdf5" stroke="#059669" stroke-width="1.5" filter="url(#shadow)"/>
<text x="1280.0" y="596.5" text-anchor="middle" font-size="14" font-weight="600" fill="#064e3b">Storage adapter</text>
<text x="1280.0" y="614.0" text-anchor="middle" font-size="11" fill="#64748b" font-style="italic">Local FS · S3 · R2</text>
<rect x="1520" y="550" width="240" height="100" rx="10" ry="10" fill="#ecfdf5" stroke="#059669" stroke-width="1.5" filter="url(#shadow)"/>
<text x="1640.0" y="596.5" text-anchor="middle" font-size="14" font-weight="600" fill="#064e3b">Pricing engine</text>
<text x="1640.0" y="614.0" text-anchor="middle" font-size="11" fill="#64748b" font-style="italic">Discount · bonus · tax</text>
<rect x="48" y="750" width="1704" height="130" rx="14" ry="14" fill="none" stroke="#94a3b8" stroke-width="1" stroke-dasharray="6,4" opacity="0.45"/><text x="64" y="774" font-size="13" font-weight="700" fill="#94a3b8" letter-spacing="1.5">DATA TIER</text>
<rect x="420" y="780" width="360" height="80" rx="10" ry="10" fill="#f1f5f9" stroke="#475569" stroke-width="1.5" filter="url(#shadow)"/>
<text x="600.0" y="816.5" text-anchor="middle" font-size="14" font-weight="600" fill="#0f172a">Prisma ORM</text>
<text x="600.0" y="834.0" text-anchor="middle" font-size="11" fill="#64748b" font-style="italic">Type-safe queries · generated client</text>
<path d="M 880 790 A 140.0 10 0 0 1 1160 790 L 1160 850 A 140.0 10 0 0 1 880 850 Z" fill="#f1f5f9" stroke="#475569" stroke-width="1.5" filter="url(#shadow)"/>
<ellipse cx="1020.0" cy="790" rx="140.0" ry="10" fill="#f1f5f9" stroke="#475569" stroke-width="1.5"/>
<text x="1020.0" y="820.5" text-anchor="middle" font-size="14" font-weight="600" fill="#0f172a">PostgreSQL 16</text>
<text x="1020.0" y="838.0" text-anchor="middle" font-size="11" fill="#64748b" font-style="italic">Single primary on VPS</text>
<rect x="1240" y="780" width="360" height="80" rx="10" ry="10" fill="#f1f5f9" stroke="#475569" stroke-width="1.5" filter="url(#shadow)"/>
<text x="1420.0" y="816.5" text-anchor="middle" font-size="14" font-weight="600" fill="#0f172a">Backups</text>
<text x="1420.0" y="834.0" text-anchor="middle" font-size="11" fill="#64748b" font-style="italic">Nightly pg_dump → encrypted off-site</text>
<rect x="48" y="900" width="1100" height="240" rx="14" ry="14" fill="none" stroke="#94a3b8" stroke-width="1" stroke-dasharray="6,4" opacity="0.45"/><text x="64" y="924" font-size="13" font-weight="700" fill="#94a3b8" letter-spacing="1.5">EXTERNAL PROVIDERS</text>
<rect x="80" y="940" width="240" height="80" rx="10" ry="10" fill="#fdf4ff" stroke="#a21caf" stroke-width="1.5" filter="url(#shadow)"/>
<text x="200.0" y="976.5" text-anchor="middle" font-size="14" font-weight="600" fill="#581c87">Razorpay</text>
<text x="200.0" y="994.0" text-anchor="middle" font-size="11" fill="#64748b" font-style="italic">UPI · cards · COD</text>
<rect x="340" y="940" width="240" height="80" rx="10" ry="10" fill="#fdf4ff" stroke="#a21caf" stroke-width="1.5" filter="url(#shadow)"/>
<text x="460.0" y="976.5" text-anchor="middle" font-size="14" font-weight="600" fill="#581c87">SMS provider</text>
<text x="460.0" y="994.0" text-anchor="middle" font-size="11" fill="#64748b" font-style="italic">MSG91 / Fast2SMS</text>
<rect x="600" y="940" width="240" height="80" rx="10" ry="10" fill="#fdf4ff" stroke="#a21caf" stroke-width="1.5" filter="url(#shadow)"/>
<text x="720.0" y="976.5" text-anchor="middle" font-size="14" font-weight="600" fill="#581c87">Email SMTP</text>
<text x="720.0" y="994.0" text-anchor="middle" font-size="11" fill="#64748b" font-style="italic">Zoho · Brevo</text>
<rect x="860" y="940" width="240" height="80" rx="10" ry="10" fill="#fdf4ff" stroke="#a21caf" stroke-width="1.5" filter="url(#shadow)"/>
<text x="980.0" y="976.5" text-anchor="middle" font-size="14" font-weight="600" fill="#581c87">OSM + Nominatim</text>
<text x="980.0" y="994.0" text-anchor="middle" font-size="11" fill="#64748b" font-style="italic">Free maps &amp; geocoding</text>
<rect x="1170" y="900" width="580" height="240" rx="14" ry="14" fill="none" stroke="#94a3b8" stroke-width="1" stroke-dasharray="6,4" opacity="0.45"/><text x="1186" y="924" font-size="13" font-weight="700" fill="#94a3b8" letter-spacing="1.5">OPERATIONS</text>
<rect x="1200" y="940" width="240" height="80" rx="10" ry="10" fill="#fefce8" stroke="#a16207" stroke-width="1.5" filter="url(#shadow)"/>
<text x="1320.0" y="976.5" text-anchor="middle" font-size="14" font-weight="600" fill="#713f12">PM2</text>
<text x="1320.0" y="994.0" text-anchor="middle" font-size="11" fill="#64748b" font-style="italic">Process supervisor · auto-restart</text>
<rect x="1480" y="940" width="240" height="80" rx="10" ry="10" fill="#fefce8" stroke="#a16207" stroke-width="1.5" filter="url(#shadow)"/>
<text x="1600.0" y="976.5" text-anchor="middle" font-size="14" font-weight="600" fill="#713f12">Pino + UptimeRobot</text>
<text x="1600.0" y="994.0" text-anchor="middle" font-size="11" fill="#64748b" font-style="italic">Logs · external health checks</text>
<rect x="1340" y="1040" width="240" height="80" rx="10" ry="10" fill="#fefce8" stroke="#a16207" stroke-width="1.5" filter="url(#shadow)"/>
<text x="1460.0" y="1076.5" text-anchor="middle" font-size="14" font-weight="600" fill="#713f12">Ubuntu 22.04 VPS</text>
<text x="1460.0" y="1094.0" text-anchor="middle" font-size="11" fill="#64748b" font-style="italic">4 vCPU · 8 GB RAM</text>
<path d="M 900 230 L 900 280" stroke="#64748b" stroke-width="1.6" fill="none" marker-end="url(#arrow)"/>
<path d="M 1200 340 L 1200 420" stroke="#64748b" stroke-width="1.6" fill="none" marker-end="url(#arrow)"/>
<path d="M 560 650 L 560 780" stroke="#64748b" stroke-width="1.6" fill="none" marker-end="url(#arrow)"/>
<path d="M 900 860 L 200 940" stroke="#64748b" stroke-width="1.6" fill="none" stroke-dasharray="5,4" marker-end="url(#arrow-dash)"/>
<g transform="translate(48, 96)">
<rect x="0" y="0" width="20" height="14" rx="3" fill="#fef3e7" stroke="#d97706"/>
<text x="28" y="11" font-size="12" fill="#334155">Clients</text>
<rect x="0" y="24" width="20" height="14" rx="3" fill="#eef2ff" stroke="#4338ca"/>
<text x="28" y="35" font-size="12" fill="#334155">Edge</text>
<rect x="0" y="48" width="20" height="14" rx="3" fill="#ecfdf5" stroke="#059669"/>
<text x="28" y="59" font-size="12" fill="#334155">App</text>
<rect x="0" y="72" width="20" height="14" rx="3" fill="#f1f5f9" stroke="#475569"/>
<text x="28" y="83" font-size="12" fill="#334155">Data</text>
<rect x="0" y="96" width="20" height="14" rx="3" fill="#fdf4ff" stroke="#a21caf"/>
<text x="28" y="107" font-size="12" fill="#334155">External</text>
<rect x="0" y="120" width="20" height="14" rx="3" fill="#fefce8" stroke="#a16207"/>
<text x="28" y="131" font-size="12" fill="#334155">Operations</text>
</g>
</svg>
