<svg xmlns="http://www.w3.org/2000/svg" viewBox="0 0 1800 1100" width="1800" height="1100" font-family='system-ui, -apple-system, "Segoe UI", Roboto, Helvetica, Arial, sans-serif'>
<defs>
  <marker id="arrow" viewBox="0 0 10 10" refX="9" refY="5" markerWidth="6" markerHeight="6" orient="auto-start-reverse">
    <path d="M 0 0 L 10 5 L 0 10 z" fill="#475569"/>
  </marker>
  <marker id="arrow-dash" viewBox="0 0 10 10" refX="9" refY="5" markerWidth="5" markerHeight="5" orient="auto-start-reverse">
    <path d="M 0 0 L 10 5 L 0 10 z" fill="#94a3b8"/>
  </marker>
  <filter id="shadow" x="-20%" y="-20%" width="140%" height="140%">
    <feDropShadow dx="0" dy="2" stdDeviation="2" flood-opacity="0.08"/>
  </filter>
</defs>
<rect width="1800" height="1100" fill="#ffffff"/>
<text x="48" y="56" font-size="32" font-weight="700" fill="#0f172a">Business Architecture — Actors × capabilities</text>
<text x="48" y="84" font-size="15" fill="#475569">Six business actors map to four core, six growth, and five operational capabilities.</text>
<rect x="48" y="110" width="220" height="920" rx="14" ry="14" fill="none" stroke="#94a3b8" stroke-width="1" stroke-dasharray="6,4" opacity="0.45"/><text x="64" y="134" font-size="13" font-weight="700" fill="#94a3b8" letter-spacing="1.5">ACTORS</text>
<circle cx="158" cy="180" r="56" fill="#fff7ed" stroke="#ea580c" stroke-width="2" filter="url(#shadow)"/>
<text x="158" y="184.66666666666666" text-anchor="middle" font-size="14" font-weight="700" fill="#7c2d12">Customer</text>
<circle cx="158" cy="320" r="56" fill="#fff7ed" stroke="#ea580c" stroke-width="2" filter="url(#shadow)"/>
<text x="158" y="316.2666666666667" text-anchor="middle" font-size="14" font-weight="700" fill="#7c2d12">Restaurant</text>
<text x="158" y="333.0666666666667" text-anchor="middle" font-size="14" font-weight="700" fill="#7c2d12">Owner</text>
<circle cx="158" cy="460" r="56" fill="#fff7ed" stroke="#ea580c" stroke-width="2" filter="url(#shadow)"/>
<text x="158" y="456.2666666666667" text-anchor="middle" font-size="14" font-weight="700" fill="#7c2d12">Kitchen</text>
<text x="158" y="473.0666666666667" text-anchor="middle" font-size="14" font-weight="700" fill="#7c2d12">Staff</text>
<circle cx="158" cy="600" r="56" fill="#fff7ed" stroke="#ea580c" stroke-width="2" filter="url(#shadow)"/>
<text x="158" y="604.6666666666666" text-anchor="middle" font-size="14" font-weight="700" fill="#7c2d12">Rider</text>
<circle cx="158" cy="740" r="56" fill="#fff7ed" stroke="#ea580c" stroke-width="2" filter="url(#shadow)"/>
<text x="158" y="736.2666666666667" text-anchor="middle" font-size="14" font-weight="700" fill="#7c2d12">Super</text>
<text x="158" y="753.0666666666666" text-anchor="middle" font-size="14" font-weight="700" fill="#7c2d12">Admin</text>
<circle cx="158" cy="880" r="56" fill="#fff7ed" stroke="#ea580c" stroke-width="2" filter="url(#shadow)"/>
<text x="158" y="876.2666666666667" text-anchor="middle" font-size="14" font-weight="700" fill="#7c2d12">Platform</text>
<text x="158" y="893.0666666666666" text-anchor="middle" font-size="14" font-weight="700" fill="#7c2d12">Operator</text>
<rect x="310" y="110" width="460" height="460" rx="14" ry="14" fill="none" stroke="#94a3b8" stroke-width="1" stroke-dasharray="6,4" opacity="0.45"/><text x="326" y="134" font-size="13" font-weight="700" fill="#94a3b8" letter-spacing="1.5">CORE CAPABILITIES</text>
<rect x="330" y="150" width="200" height="160" rx="10" ry="10" fill="#eef2ff" stroke="#4338ca" stroke-width="1.5" filter="url(#shadow)"/>
<text x="430.0" y="226.25" text-anchor="middle" font-size="15" font-weight="600" fill="#1e1b4b">Ordering &amp;</text>
<text x="430.0" y="245.0" text-anchor="middle" font-size="15" font-weight="600" fill="#1e1b4b">Checkout</text>
<rect x="550" y="150" width="200" height="160" rx="10" ry="10" fill="#eef2ff" stroke="#4338ca" stroke-width="1.5" filter="url(#shadow)"/>
<text x="650.0" y="226.25" text-anchor="middle" font-size="15" font-weight="600" fill="#1e1b4b">Kitchen</text>
<text x="650.0" y="245.0" text-anchor="middle" font-size="15" font-weight="600" fill="#1e1b4b">Operations</text>
<rect x="330" y="350" width="200" height="160" rx="10" ry="10" fill="#eef2ff" stroke="#4338ca" stroke-width="1.5" filter="url(#shadow)"/>
<text x="430.0" y="426.25" text-anchor="middle" font-size="15" font-weight="600" fill="#1e1b4b">Delivery</text>
<text x="430.0" y="445.0" text-anchor="middle" font-size="15" font-weight="600" fill="#1e1b4b">Operations</text>
<rect x="550" y="350" width="200" height="160" rx="10" ry="10" fill="#eef2ff" stroke="#4338ca" stroke-width="1.5" filter="url(#shadow)"/>
<text x="650.0" y="426.25" text-anchor="middle" font-size="15" font-weight="600" fill="#1e1b4b">Payments</text>
<text x="650.0" y="445.0" text-anchor="middle" font-size="15" font-weight="600" fill="#1e1b4b">&amp; COD</text>
<rect x="800" y="110" width="470" height="920" rx="14" ry="14" fill="none" stroke="#94a3b8" stroke-width="1" stroke-dasharray="6,4" opacity="0.45"/><text x="816" y="134" font-size="13" font-weight="700" fill="#94a3b8" letter-spacing="1.5">GROWTH CAPABILITIES</text>
<rect x="820" y="150" width="200" height="240" rx="10" ry="10" fill="#ecfdf5" stroke="#059669" stroke-width="1.5" filter="url(#shadow)"/>
<text x="920.0" y="266.25" text-anchor="middle" font-size="15" font-weight="600" fill="#064e3b">Offers &amp;</text>
<text x="920.0" y="285.0" text-anchor="middle" font-size="15" font-weight="600" fill="#064e3b">Coupons</text>
<rect x="1040" y="150" width="200" height="240" rx="10" ry="10" fill="#ecfdf5" stroke="#059669" stroke-width="1.5" filter="url(#shadow)"/>
<text x="1140.0" y="266.25" text-anchor="middle" font-size="15" font-weight="600" fill="#064e3b">Happy Hour</text>
<text x="1140.0" y="285.0" text-anchor="middle" font-size="15" font-weight="600" fill="#064e3b">Pricing</text>
<rect x="820" y="440" width="200" height="240" rx="10" ry="10" fill="#ecfdf5" stroke="#059669" stroke-width="1.5" filter="url(#shadow)"/>
<text x="920.0" y="556.25" text-anchor="middle" font-size="15" font-weight="600" fill="#064e3b">Cross-channel</text>
<text x="920.0" y="575.0" text-anchor="middle" font-size="15" font-weight="600" fill="#064e3b">Campaigns</text>
<rect x="1040" y="440" width="200" height="240" rx="10" ry="10" fill="#ecfdf5" stroke="#059669" stroke-width="1.5" filter="url(#shadow)"/>
<text x="1140.0" y="556.25" text-anchor="middle" font-size="15" font-weight="600" fill="#064e3b">Challenges &amp;</text>
<text x="1140.0" y="575.0" text-anchor="middle" font-size="15" font-weight="600" fill="#064e3b">Gamification</text>
<rect x="820" y="730" width="200" height="240" rx="10" ry="10" fill="#ecfdf5" stroke="#059669" stroke-width="1.5" filter="url(#shadow)"/>
<text x="920.0" y="846.25" text-anchor="middle" font-size="15" font-weight="600" fill="#064e3b">Signup Bonus</text>
<text x="920.0" y="865.0" text-anchor="middle" font-size="15" font-weight="600" fill="#064e3b">&amp; Loyalty</text>
<rect x="1040" y="730" width="200" height="240" rx="10" ry="10" fill="#ecfdf5" stroke="#059669" stroke-width="1.5" filter="url(#shadow)"/>
<text x="1140.0" y="846.25" text-anchor="middle" font-size="15" font-weight="600" fill="#064e3b">Cross-sell</text>
<text x="1140.0" y="865.0" text-anchor="middle" font-size="15" font-weight="600" fill="#064e3b">&amp; Combos</text>
<rect x="1300" y="110" width="450" height="920" rx="14" ry="14" fill="none" stroke="#94a3b8" stroke-width="1" stroke-dasharray="6,4" opacity="0.45"/><text x="1316" y="134" font-size="13" font-weight="700" fill="#94a3b8" letter-spacing="1.5">OPERATIONAL CAPABILITIES</text>
<rect x="1320" y="150" width="190" height="200" rx="10" ry="10" fill="#fdf4ff" stroke="#a21caf" stroke-width="1.5" filter="url(#shadow)"/>
<text x="1415.0" y="246.25" text-anchor="middle" font-size="15" font-weight="600" fill="#581c87">Rider Mgmt</text>
<text x="1415.0" y="265.0" text-anchor="middle" font-size="15" font-weight="600" fill="#581c87">+ KYC</text>
<rect x="1530" y="150" width="190" height="200" rx="10" ry="10" fill="#fdf4ff" stroke="#a21caf" stroke-width="1.5" filter="url(#shadow)"/>
<text x="1625.0" y="246.25" text-anchor="middle" font-size="15" font-weight="600" fill="#581c87">Multi-cuisine</text>
<text x="1625.0" y="265.0" text-anchor="middle" font-size="15" font-weight="600" fill="#581c87">Umbrella</text>
<rect x="1320" y="400" width="190" height="200" rx="10" ry="10" fill="#fdf4ff" stroke="#a21caf" stroke-width="1.5" filter="url(#shadow)"/>
<text x="1415.0" y="496.25" text-anchor="middle" font-size="15" font-weight="600" fill="#581c87">Feedback</text>
<text x="1415.0" y="515.0" text-anchor="middle" font-size="15" font-weight="600" fill="#581c87">&amp; Quality</text>
<rect x="1530" y="400" width="190" height="200" rx="10" ry="10" fill="#fdf4ff" stroke="#a21caf" stroke-width="1.5" filter="url(#shadow)"/>
<text x="1625.0" y="496.25" text-anchor="middle" font-size="15" font-weight="600" fill="#581c87">Analytics</text>
<text x="1625.0" y="515.0" text-anchor="middle" font-size="15" font-weight="600" fill="#581c87">&amp; Reporting</text>
<rect x="1320" y="650" width="190" height="200" rx="10" ry="10" fill="#fdf4ff" stroke="#a21caf" stroke-width="1.5" filter="url(#shadow)"/>
<text x="1415.0" y="746.25" text-anchor="middle" font-size="15" font-weight="600" fill="#581c87">Support &amp;</text>
<text x="1415.0" y="765.0" text-anchor="middle" font-size="15" font-weight="600" fill="#581c87">Reconciliation</text>
<rect x="1425" y="900" width="190" height="110" rx="10" ry="10" fill="#fdf4ff" stroke="#a21caf" stroke-width="1.5" filter="url(#shadow)"/>
<text x="1520.0" y="951.25" text-anchor="middle" font-size="15" font-weight="600" fill="#581c87">Support &amp;</text>
<text x="1520.0" y="970.0" text-anchor="middle" font-size="15" font-weight="600" fill="#581c87">Reconciliation</text>
<path d="M 214 180 L 330 230" stroke="#64748b" stroke-width="1.6" fill="none" marker-end="url(#arrow)"/>
<rect x="226.5" y="189.0" width="91" height="16" rx="3" fill="white" opacity="0.9"/>
<text x="272.0" y="201.0" text-anchor="middle" font-size="11" fill="#475569">places orders</text>
<path d="M 214 320 L 330 350" stroke="#64748b" stroke-width="1.6" fill="none" marker-end="url(#arrow)"/>
<rect x="237.0" y="319.0" width="70" height="16" rx="3" fill="white" opacity="0.9"/>
<text x="272.0" y="331.0" text-anchor="middle" font-size="11" fill="#475569">configures</text>
<path d="M 214 460 L 330 480" stroke="#64748b" stroke-width="1.6" fill="none" marker-end="url(#arrow)"/>
<rect x="244.0" y="454.0" width="56" height="16" rx="3" fill="white" opacity="0.9"/>
<text x="272.0" y="466.0" text-anchor="middle" font-size="11" fill="#475569">prepares</text>
<path d="M 214 600 L 330 510" stroke="#64748b" stroke-width="1.6" fill="none" marker-end="url(#arrow)"/>
<rect x="244.0" y="539.0" width="56" height="16" rx="3" fill="white" opacity="0.9"/>
<text x="272.0" y="551.0" text-anchor="middle" font-size="11" fill="#475569">delivers</text>
<path d="M 214 740 L 800 230" stroke="#64748b" stroke-width="1.6" fill="none" stroke-dasharray="5,4" marker-end="url(#arrow-dash)"/>
<rect x="472.0" y="469.0" width="70" height="16" rx="3" fill="white" opacity="0.9"/>
<text x="507.0" y="481.0" text-anchor="middle" font-size="11" fill="#475569">configures</text>
<path d="M 214 880 L 1300 880" stroke="#64748b" stroke-width="1.6" fill="none" stroke-dasharray="5,4" marker-end="url(#arrow-dash)"/>
<rect x="722.0" y="864.0" width="70" height="16" rx="3" fill="white" opacity="0.9"/>
<text x="757.0" y="876.0" text-anchor="middle" font-size="11" fill="#475569">reconciles</text>
</svg>
